{
    "accessors" : [
        {
            "bufferView" : 0, 
            "componentType" : 5121, 
            "count" : 6, 
            "max" : [
                3
            ], 
            "min" : [
                0
            ], 
            "type" : "SCALAR"
        }, 
        {
            "bufferView" : 1, 
            "componentType" : 5126, 
            "count" : 4, 
            "max" : [
                1.0, 
                0.0, 
                1.0
            ], 
            "min" : [
                -1.0, 
                0.0, 
                -1.0
            ], 
            "type" : "VEC3"
        }, 
        {
            "bufferView" : 2, 
            "componentType" : 5126, 
            "count" : 4, 
            "max" : [
                0.0, 
                1.0, 
                -0.0
            ], 
            "min" : [
                0.0, 
                1.0, 
                -0.0
            ], 
            "type" : "VEC3"
        }, 
        {
            "bufferView" : 3, 
            "componentType" : 5121, 
            "count" : 6, 
            "max" : [
                3
            ], 
            "min" : [
                0
            ], 
            "type" : "SCALAR"
        }, 
        {
            "bufferView" : 4, 
            "componentType" : 5126, 
            "count" : 4, 
            "max" : [
                1.0, 
                0.0, 
                1.0
            ], 
            "min" : [
                -1.0, 
                0.0, 
                -1.0
            ], 
            "type" : "VEC3"
        }, 
        {
            "bufferView" : 5, 
            "componentType" : 5126, 
            "count" : 4, 
            "max" : [
                0.0, 
                1.0, 
                -0.0
            ], 
            "min" : [
                0.0, 
                1.0, 
                -0.0
            ], 
            "type" : "VEC3"
        }, 
        {
            "bufferView" : 6, 
            "componentType" : 5121, 
            "count" : 6, 
            "max" : [
                3
            ], 
            "min" : [
                0
            ], 
            "type" : "SCALAR"
        }, 
        {
            "bufferView" : 7, 
            "componentType" : 5126, 
            "count" : 4, 
            "max" : [
                1.0, 
                0.0, 
                1.0
            ], 
            "min" : [
                -1.0, 
                0.0, 
                -1.0
            ], 
            "type" : "VEC3"
        }, 
        {
            "bufferView" : 8, 
            "componentType" : 5126, 
            "count" : 4, 
            "max" : [
                0.0, 
                1.0, 
                -0.0
            ], 
            "min" : [
                0.0, 
                1.0, 
                -0.0
            ], 
            "type" : "VEC3"
        }, 
        {
            "bufferView" : 9, 
            "componentType" : 5121, 
            "count" : 6, 
            "max" : [
                3
            ], 
            "min" : [
                0
            ], 
            "type" : "SCALAR"
        }, 
        {
            "bufferView" : 10, 
            "componentType" : 5126, 
            "count" : 4, 
            "max" : [
                1.0, 
                0.0, 
                1.0
            ], 
            "min" : [
                -1.0, 
                0.0, 
                -1.0
            ], 
            "type" : "VEC3"
        }, 
        {
            "bufferView" : 11, 
            "componentType" : 5126, 
            "count" : 4, 
            "max" : [
                0.0, 
                1.0, 
                -0.0
            ], 
            "min" : [
                0.0, 
                1.0, 
                -0.0
            ], 
            "type" : "VEC3"
        }, 
        {
            "bufferView" : 12, 
            "componentType" : 5121, 
            "count" : 6, 
            "max" : [
                3
            ], 
            "min" : [
                0
            ], 
            "type" : "SCALAR"
        }, 
        {
            "bufferView" : 13, 
            "componentType" : 5126, 
            "count" : 4, 
            "max" : [
                1.0, 
                0.0, 
                1.0
            ], 
            "min" : [
                -1.0, 
                0.0, 
                -1.0
            ], 
            "type" : "VEC3"
        }, 
        {
            "bufferView" : 14, 
            "componentType" : 5126, 
            "count" : 4, 
            "max" : [
                0.0, 
                1.0, 
                -0.0
            ], 
            "min" : [
                0.0, 
                1.0, 
                -0.0
            ], 
            "type" : "VEC3"
        }
    ], 
    "asset" : {
        "generator" : "Khronos Blender glTF 2.0 exporter", 
        "version" : "2.0"
    }, 
    "bufferViews" : [
        {
            "buffer" : 0, 
            "byteLength" : 6, 
            "byteOffset" : 0, 
            "target" : 34963
        }, 
        {
            "buffer" : 0, 
            "byteLength" : 48, 
            "byteOffset" : 8, 
            "target" : 34962
        }, 
        {
            "buffer" : 0, 
            "byteLength" : 48, 
            "byteOffset" : 56, 
            "target" : 34962
        }, 
        {
            "buffer" : 0, 
            "byteLength" : 6, 
            "byteOffset" : 104, 
            "target" : 34963
        }, 
        {
            "buffer" : 0, 
            "byteLength" : 48, 
            "byteOffset" : 112, 
            "target" : 34962
        }, 
        {
            "buffer" : 0, 
            "byteLength" : 48, 
            "byteOffset" : 160, 
            "target" : 34962
        }, 
        {
            "buffer" : 0, 
            "byteLength" : 6, 
            "byteOffset" : 208, 
            "target" : 34963
        }, 
        {
            "buffer" : 0, 
            "byteLength" : 48, 
            "byteOffset" : 216, 
            "target" : 34962
        }, 
        {
            "buffer" : 0, 
            "byteLength" : 48, 
            "byteOffset" : 264, 
            "target" : 34962
        }, 
        {
            "buffer" : 0, 
            "byteLength" : 6, 
            "byteOffset" : 312, 
            "target" : 34963
        }, 
        {
            "buffer" : 0, 
            "byteLength" : 48, 
            "byteOffset" : 320, 
            "target" : 34962
        }, 
        {
            "buffer" : 0, 
            "byteLength" : 48, 
            "byteOffset" : 368, 
            "target" : 34962
        }, 
        {
            "buffer" : 0, 
            "byteLength" : 6, 
            "byteOffset" : 416, 
            "target" : 34963
        }, 
        {
            "buffer" : 0, 
            "byteLength" : 48, 
            "byteOffset" : 424, 
            "target" : 34962
        }, 
        {
            "buffer" : 0, 
            "byteLength" : 48, 
            "byteOffset" : 472, 
            "target" : 34962
        }
    ], 
    "buffers" : [
        {
            "byteLength" : 520, 
            "uri" : "burying_cube.bin"
        }
    ], 
    "cameras" : [
        {
            "name" : "Camera", 
            "perspective" : {
                "aspectRatio" : 1.7777777777777777, 
                "yfov" : 0.5033799372418416, 
                "zfar" : 100.0, 
                "znear" : 0.10000000149011612
            }, 
            "type" : "perspective"
        }
    ], 
    "meshes" : [
        {
            "name" : "Plane.002", 
            "primitives" : [
                {
                    "attributes" : {
                        "NORMAL" : 2, 
                        "POSITION" : 1
                    }, 
                    "indices" : 0
                }
            ]
        }, 
        {
            "name" : "Plane.005", 
            "primitives" : [
                {
                    "attributes" : {
                        "NORMAL" : 5, 
                        "POSITION" : 4
                    }, 
                    "indices" : 3
                }
            ]
        }, 
        {
            "name" : "Plane.001", 
            "primitives" : [
                {
                    "attributes" : {
                        "NORMAL" : 8, 
                        "POSITION" : 7
                    }, 
                    "indices" : 6
                }
            ]
        }, 
        {
            "name" : "Plane.003", 
            "primitives" : [
                {
                    "attributes" : {
                        "NORMAL" : 11, 
                        "POSITION" : 10
                    }, 
                    "indices" : 9
                }
            ]
        }, 
        {
            "name" : "Plane", 
            "primitives" : [
                {
                    "attributes" : {
                        "NORMAL" : 14, 
                        "POSITION" : 13
                    }, 
                    "indices" : 12
                }
            ]
        }
    ], 
    "nodes" : [
        {
            "camera" : 0, 
            "name" : "Correction_Camera", 
            "rotation" : [
                -0.7071067690849304, 
                -0.0, 
                0.0, 
                0.7071067690849304
            ]
        }, 
        {
            "children" : [
                0
            ], 
            "name" : "Camera", 
            "rotation" : [
                0.48170700669288635, 
                0.3342514932155609, 
                -0.21292175352573395, 
                0.7816000580787659
            ], 
            "scale" : [
                1.0, 
                1.0, 
                0.9999999403953552
            ], 
            "translation" : [
                7.481131553649902, 
                5.34366512298584, 
                6.5076398849487305
            ]
        }, 
        {
            "name" : "Lamp", 
            "rotation" : [
                0.16907575726509094, 
                0.7558802962303162, 
                -0.27217137813568115, 
                0.570947527885437
            ], 
            "scale" : [
                1.0, 
                1.0, 
                0.9999999403953552
            ], 
            "translation" : [
                4.076245307922363, 
                5.903861999511719, 
                -1.0054539442062378
            ]
        }, 
        {
            "mesh" : 4, 
            "name" : "Plane", 
            "rotation" : [
                0.0, 
                0.0, 
                -0.7071068286895752, 
                0.7071068286895752
            ], 
            "scale" : [
                0.5770842432975769, 
                0.5770842432975769, 
                0.5770842432975769
            ], 
            "translation" : [
                -0.5770842432975769, 
                -0.6875392198562622, 
                -0.0
            ]
        }, 
        {
            "mesh" : 2, 
            "name" : "Plane.001", 
            "rotation" : [
                0.0, 
                0.0, 
                0.7071068286895752, 
                0.7071068286895752
            ], 
            "scale" : [
                0.5770842432975769, 
                0.5770842432975769, 
                0.5770842432975769
            ], 
            "translation" : [
                0.5770842432975769, 
                -0.6875392198562622, 
                -0.0
            ]
        }, 
        {
            "mesh" : 0, 
            "name" : "Plane.002", 
            "rotation" : [
                -0.7071068286895752, 
                0.0, 
                -0.0, 
                0.7071068286895752
            ], 
            "scale" : [
                0.5770842432975769, 
                0.5770842432975769, 
                0.5770842432975769
            ], 
            "translation" : [
                0.0, 
                -0.6875392198562622, 
                0.5770842432975769
            ]
        }, 
        {
            "mesh" : 3, 
            "name" : "Plane.003", 
            "rotation" : [
                0.7071068286895752, 
                0.0, 
                -0.0, 
                0.7071068286895752
            ], 
            "scale" : [
                0.5770842432975769, 
                0.5770842432975769, 
                0.5770842432975769
            ], 
            "translation" : [
                0.0, 
                -0.6875392198562622, 
                -0.5770842432975769
            ]
        }, 
        {
            "mesh" : 1, 
            "name" : "Plane.004", 
            "scale" : [
                0.5770000219345093, 
                0.5770000219345093, 
                0.5770000219345093
            ], 
            "translation" : [
                0.0, 
                -1.2565104961395264, 
                -0.0
            ]
        }
    ], 
    "scene" : 0, 
    "scenes" : [
        {
            "name" : "Scene", 
            "nodes" : [
                7, 
                6, 
                5, 
                4, 
                3, 
                2, 
                1
            ]
        }
    ]
}
